<?xml version="1.0" encoding="utf-8"?>
<!-- Generator: Adobe Illustrator 25.1.0, SVG Export Plug-In . SVG Version: 6.00 Build 0)  -->
<svg version="1.1" id="Layer_1" xmlns="http://www.w3.org/2000/svg" xmlns:xlink="http://www.w3.org/1999/xlink" x="0px" y="0px"
	 viewBox="0 0 970 310" style="enable-background:new 0 0 970 310;" xml:space="preserve">
<style type="text/css">
	.st0{fill:#FFFFFF;}
</style>
<g>
	<path class="st0" d="M963.84,223.2H142.29L77.53,87.37c-0.19-0.4-0.59-0.65-1.03-0.66c-0.42-0.03-0.85,0.24-1.05,0.63L5.12,226.61
		c-0.29,0.57-0.06,1.26,0.51,1.55c0.17,0.08,0.34,0.12,0.52,0.12c0.42,0,0.83-0.23,1.03-0.63l26.8-53.07h66.13
		c0.64,0,1.16-0.52,1.16-1.15c0-0.64-0.52-1.15-1.16-1.15H35.16l41.3-81.78l64.06,134.36c0.19,0.4,0.6,0.66,1.04,0.66h822.28
		c0.64,0,1.16-0.52,1.16-1.15C965,223.72,964.48,223.2,963.84,223.2z"/>
	<path class="st0" d="M164.73,215.34c0.19,0.4,0.6,0.66,1.04,0.66c0,0,0,0,0,0c0.44,0,0.85-0.25,1.04-0.65l28.96-59.52l28.37,59.51
		c0.19,0.4,0.6,0.66,1.04,0.66c0,0,0,0,0,0c0.44,0,0.85-0.25,1.04-0.65L284.2,96.18h137.38c0.64,0,1.16-0.52,1.16-1.15
		c0-0.64-0.52-1.15-1.16-1.15h-138.1c-0.44,0-0.85,0.25-1.04,0.65L225.2,212.19l-28.37-59.51c-0.19-0.4-0.6-0.66-1.04-0.66
		c-0.51-0.04-0.85,0.25-1.04,0.65l-28.96,59.52l-59.5-124.81c-0.27-0.58-0.96-0.82-1.54-0.55c-0.58,0.27-0.82,0.96-0.55,1.53
		L164.73,215.34z"/>
	<path class="st0" d="M333.97,107.38c-0.64,0-1.16,0.52-1.16,1.15v104.88c0,0.64,0.52,1.15,1.16,1.15h87.61
		c0.64,0,1.16-0.52,1.16-1.15c0-0.64-0.52-1.15-1.16-1.15h-86.45V108.53C335.13,107.89,334.61,107.38,333.97,107.38z"/>
	<path class="st0" d="M421.58,150.21h-66.99c-0.64,0-1.16,0.52-1.16,1.15c0,0.64,0.52,1.15,1.16,1.15h66.99
		c0.64,0,1.16-0.52,1.16-1.15C422.73,150.72,422.22,150.21,421.58,150.21z"/>
	<path class="st0" d="M875.38,107.38c-0.64,0-1.16,0.52-1.16,1.15v104.88c0,0.64,0.52,1.15,1.16,1.15h87.61
		c0.64,0,1.16-0.52,1.16-1.15c0-0.64-0.52-1.15-1.16-1.15h-86.45V108.53C876.53,107.89,876.02,107.38,875.38,107.38z"/>
	<path class="st0" d="M962.98,150.21h-66.99c-0.64,0-1.16,0.52-1.16,1.15c0,0.64,0.52,1.15,1.16,1.15h66.99
		c0.64,0,1.16-0.52,1.16-1.15C964.14,150.72,963.62,150.21,962.98,150.21z"/>
	<path class="st0" d="M441.58,213.41c0,0.64,0.52,1.15,1.16,1.15h88.87c0.64,0,1.16-0.52,1.16-1.15v-62.05
		c0-0.64-0.52-1.15-1.16-1.15h-87.71V96.18h87.71c0.64,0,1.16-0.52,1.16-1.15c0-0.64-0.52-1.15-1.16-1.15h-88.87
		c-0.64,0-1.16,0.52-1.16,1.15v56.32c0,0.64,0.52,1.15,1.16,1.15h87.71v59.75h-87.71C442.1,212.26,441.58,212.77,441.58,213.41z"/>
	<path class="st0" d="M719.62,93.95c-0.46,0.16-0.76,0.6-0.76,1.08v118.38c0,0.64,0.52,1.15,1.16,1.15c0.64,0,1.16-0.52,1.16-1.15
		V98.23l55.48,66.62c0.22,0.26,0.54,0.41,0.88,0.42c0.35-0.08,0.67-0.15,0.89-0.41l58.76-68.68h126.65c0.64,0,1.16-0.52,1.16-1.15
		c0-0.64-0.52-1.15-1.16-1.15H836.65c-0.34,0-0.66,0.15-0.88,0.41l-58.22,68.04L720.9,94.3C720.59,93.92,720.08,93.78,719.62,93.95z
		"/>
	<path class="st0" d="M834.18,118.66v94.75c0,0.64,0.52,1.15,1.16,1.15c0.64,0,1.16-0.52,1.16-1.15v-94.75
		c0-0.64-0.52-1.15-1.16-1.15C834.7,117.51,834.18,118.02,834.18,118.66z"/>
	<path class="st0" d="M625.81,214.85c33.16,0,60.14-26.87,60.14-59.91c0-33.03-26.98-59.91-60.14-59.91
		c-33.16,0-60.14,26.87-60.14,59.91c0,6.51,1.06,12.77,3,18.64l87.32-44.08l-18.67,75.86l-37.61-11.93l26.07-31.58l-34.14,29.02
		l-17.66-5.6c6.12,10.34,15.26,18.7,26.22,23.86l-0.37-10.57l12.85,4.33l-5.87,8.88C612.78,213.76,619.17,214.85,625.81,214.85z"/>
	<path class="st0" d="M849.53,235.88c-9.29,0-14.19,5.59-14.19,15.01v32.82c0,9.43,4.9,15.01,14.19,15.01s14.19-5.59,14.19-15.01
		v-8.64h-9.11v9.34c0,4.01-1.93,5.59-4.82,5.59c-2.89,0-4.82-1.57-4.82-5.59v-34.13c0-4.01,1.93-5.67,4.82-5.67
		c2.89,0,4.82,1.66,4.82,5.67v7.07h9.11v-6.46C863.72,241.46,858.82,235.88,849.53,235.88z"/>
	<polygon class="st0" points="889.47,261.63 879.14,261.63 879.14,236.75 869.5,236.75 869.5,297.84 879.14,297.84 879.14,270.35 
		889.47,270.35 889.47,297.84 899.11,297.84 899.11,236.75 889.47,236.75 	"/>
	<path class="st0" d="M913.74,236.75l-9.99,61.09h8.94l1.75-11.96h10.95v-0.17l1.75,12.13h9.64l-9.99-61.09H913.74z M915.58,277.6
		l4.2-30.2h0.18l4.29,30.2H915.58z"/>
	<polygon class="st0" points="934.84,245.48 944.92,245.48 944.92,297.84 954.56,297.84 954.56,245.48 964.63,245.48 964.63,236.75 
		934.84,236.75 	"/>
	<path class="st0" d="M480.93,123.11c1.2-5.54,2.64-11.02,4.07-16.54c-2.29,5.23-3.95,10.73-5.2,16.3
		c-1.21,5.58-2.01,11.26-2.14,16.97C478.69,134.22,479.69,128.65,480.93,123.11z"/>
	<path class="st0" d="M480.06,182.52c-1.3-6.49-2.12-13.05-2.95-19.64c-0.13,6.66,0.64,13.3,1.81,19.86
		c1.31,6.53,3.03,13,5.59,19.15C482.86,195.44,481.23,189.04,480.06,182.52z"/>
	<path class="st0" d="M726.2,263.32c-9.13,8.15-19.24,15.19-30.06,20.85c-10.83,5.62-22.26,10.12-34.11,13.03
		c-11.84,2.93-24.04,4.38-36.23,4.35c-12.19,0.02-24.39-1.41-36.23-4.35c-11.85-2.9-23.28-7.4-34.11-13.03
		c-10.82-5.67-20.93-12.7-30.06-20.85c-9.21-8.07-17.34-17.37-24.41-27.44c6.41,10.51,14.34,20.1,23.26,28.68
		c9,8.5,19.08,15.89,29.94,21.94c21.73,12.12,46.68,18.36,71.61,18.49c24.93-0.14,49.88-6.38,71.6-18.5
		c10.85-6.05,20.94-13.44,29.94-21.94c8.92-8.58,16.84-18.18,23.26-28.68C743.55,245.95,735.42,255.24,726.2,263.32z"/>
	<path class="st0" d="M769.73,195.3c1.64-6.05,2.92-12.21,3.37-18.47c-1.39,6.1-2.72,12.18-4.48,18.16
		c-1.63,6.01-3.66,11.89-5.67,17.82C765.85,207.24,767.97,201.31,769.73,195.3z"/>
	<path class="st0" d="M564.23,21.38l2.67-1.23l2.74-1.06l5.49-2.1c3.7-1.28,7.45-2.43,11.2-3.54c7.59-1.92,15.27-3.56,23.07-4.28
		l5.84-0.59l5.87-0.2c1.96-0.02,3.91-0.22,5.87-0.09l5.86,0.3l5.86,0.3c1.96,0.03,3.88,0.5,5.82,0.73l5.81,0.85
		c1.94,0.28,3.88,0.52,5.76,1.06c30.76,6.14,58.96,22.87,80.08,45.92c10.66,11.5,19.12,24.94,25.52,39.23
		c6.47,14.29,10.55,29.64,12.45,45.31c-1.12-15.75-4.88-31.31-10.89-45.98c-6.15-14.6-14.48-28.41-25.08-40.33
		c-10.5-12-23.07-22.16-36.83-30.25c-6.82-4.18-14.16-7.42-21.54-10.47l-11.34-3.94l-11.66-2.87c-1.93-0.54-3.92-0.77-5.91-1.05
		l-5.95-0.84c-1.99-0.22-3.95-0.69-5.96-0.7l-6-0.27l-6-0.26c-2-0.12-4,0.1-6,0.13l-5.99,0.24l-5.97,0.64
		c-15.88,1.79-31.55,5.99-45.94,12.93c-14.4,6.85-27.82,15.8-39.31,26.79c-11.41,11.05-21.17,23.77-28.54,37.74
		C511.25,56.28,535.52,34.1,564.23,21.38z"/>
</g>
</svg>
