<?xml version="1.0" encoding="utf-8"?>
<!-- Generator: Adobe Illustrator 25.1.0, SVG Export Plug-In . SVG Version: 6.00 Build 0)  -->
<svg version="1.1" id="Layer_1" xmlns="http://www.w3.org/2000/svg" xmlns:xlink="http://www.w3.org/1999/xlink" x="0px" y="0px"
	 viewBox="0 0 970 310" style="enable-background:new 0 0 970 310;" xml:space="preserve">
<style type="text/css">
	.st0{fill:#FFFFFF;}
</style>
<g>
	<path class="st0" d="M963.8,223.2H142.3L77.5,87.4c-0.2-0.4-0.6-0.7-1-0.7c-0.4,0-0.8,0.2-1.1,0.6L5.1,226.6
		c-0.3,0.6-0.1,1.3,0.5,1.6c0.2,0.1,0.3,0.1,0.5,0.1c0.4,0,0.8-0.2,1-0.6L34,174.6h66.1c0.6,0,1.2-0.5,1.2-1.1
		c0-0.6-0.5-1.1-1.2-1.1H35.2l41.3-81.8l64.1,134.4c0.2,0.4,0.6,0.7,1,0.7h822.3c0.6,0,1.2-0.5,1.2-1.1
		C965,223.7,964.5,223.2,963.8,223.2z"/>
	<path class="st0" d="M164.7,215.3c0.2,0.4,0.6,0.7,1,0.7l0,0c0.4,0,0.9-0.3,1-0.6l29-59.5l28.4,59.5c0.2,0.4,0.6,0.7,1,0.7l0,0
		c0.4,0,0.9-0.3,1-0.6l58-119.2h137.4c0.6,0,1.2-0.5,1.2-1.2c0-0.6-0.5-1.2-1.2-1.2H283.5c-0.4,0-0.9,0.3-1,0.7l-57.2,117.7
		l-28.4-59.5c-0.2-0.4-0.6-0.7-1-0.7c-0.5,0-0.9,0.3-1,0.6l-29,59.5L106.3,87.4c-0.3-0.6-1-0.8-1.5-0.6s-0.8,1-0.6,1.5L164.7,215.3z
		"/>
	<path class="st0" d="M334,107.4c-0.6,0-1.2,0.5-1.2,1.2v104.9c0,0.6,0.5,1.1,1.2,1.1h87.6c0.6,0,1.2-0.5,1.2-1.1
		c0-0.6-0.5-1.1-1.2-1.1h-86.5V108.5C335.1,107.9,334.6,107.4,334,107.4z"/>
	<path class="st0" d="M421.6,150.2h-67c-0.6,0-1.2,0.5-1.2,1.1c0,0.6,0.5,1.1,1.2,1.1h67c0.6,0,1.2-0.5,1.2-1.1
		C422.7,150.7,422.2,150.2,421.6,150.2z"/>
	<path class="st0" d="M875.4,107.4c-0.6,0-1.2,0.5-1.2,1.2v104.9c0,0.6,0.5,1.1,1.2,1.1H963c0.6,0,1.2-0.5,1.2-1.1
		c0-0.6-0.5-1.1-1.2-1.1h-86.5V108.5C876.5,107.9,876,107.4,875.4,107.4z"/>
	<path class="st0" d="M963,150.2h-67c-0.6,0-1.2,0.5-1.2,1.1c0,0.6,0.5,1.1,1.2,1.1h67c0.6,0,1.2-0.5,1.2-1.1
		C964.1,150.7,963.6,150.2,963,150.2z"/>
	<path class="st0" d="M441.6,213.4c0,0.6,0.5,1.1,1.2,1.1h88.9c0.6,0,1.2-0.5,1.2-1.1v-62.1c0-0.6-0.5-1.1-1.2-1.1h-87.7v-54h87.7
		c0.6,0,1.2-0.5,1.2-1.2c0-0.6-0.5-1.2-1.2-1.2h-88.9c-0.6,0-1.2,0.5-1.2,1.2v56.3c0,0.6,0.5,1.1,1.2,1.1h87.7v59.8h-87.7
		C442.1,212.3,441.6,212.8,441.6,213.4z"/>
	<path class="st0" d="M719.6,93.9c-0.5,0.2-0.8,0.6-0.8,1.1v118.4c0,0.6,0.5,1.1,1.2,1.1c0.6,0,1.2-0.5,1.2-1.1V98.2l55.5,66.6
		c0.2,0.3,0.5,0.4,0.9,0.4c0.3-0.1,0.7-0.1,0.9-0.4l58.8-68.7h126.7c0.6,0,1.2-0.5,1.2-1.2c0-0.6-0.5-1.2-1.2-1.2H836.7
		c-0.3,0-0.7,0.2-0.9,0.4l-58.2,68l-56.7-68C720.6,93.9,720.1,93.8,719.6,93.9z"/>
	<path class="st0" d="M834.2,118.7v94.8c0,0.6,0.5,1.1,1.2,1.1c0.6,0,1.2-0.5,1.2-1.1v-94.8c0-0.6-0.5-1.2-1.2-1.2
		S834.2,118,834.2,118.7z"/>
	<path class="st0" d="M625.8,214.9c33.2,0,60.1-26.9,60.1-59.9c0-33-27-59.9-60.1-59.9c-33.2,0-60.1,26.9-60.1,59.9
		c0,6.5,1.1,12.8,3,18.6l87.3-44.1l-18.7,75.9l-37.6-11.9l26.1-31.6l-34.1,29l-17.7-5.6c6.1,10.3,15.3,18.7,26.2,23.9l-0.4-10.6
		l12.8,4.3l-5.9,8.9C612.8,213.8,619.2,214.9,625.8,214.9z"/>
	<path class="st0" d="M849.5,235.9c-9.3,0-14.2,5.6-14.2,15v32.8c0,9.4,4.9,15,14.2,15s14.2-5.6,14.2-15v-8.6h-9.1v9.3
		c0,4-1.9,5.6-4.8,5.6s-4.8-1.6-4.8-5.6v-34.1c0-4,1.9-5.7,4.8-5.7s4.8,1.7,4.8,5.7v7.1h9.1v-6.5
		C863.7,241.5,858.8,235.9,849.5,235.9z"/>
	<polygon class="st0" points="889.5,261.6 879.1,261.6 879.1,236.8 869.5,236.8 869.5,297.8 879.1,297.8 879.1,270.4 889.5,270.4 
		889.5,297.8 899.1,297.8 899.1,236.8 889.5,236.8 	"/>
	<path class="st0" d="M913.7,236.8l-10,61.1h8.9l1.8-12h11v-0.2l1.8,12.1h9.6l-10-61.1H913.7z M915.6,277.6l4.2-30.2h0.2l4.3,30.2
		H915.6z"/>
	<polygon class="st0" points="934.8,245.5 944.9,245.5 944.9,297.8 954.6,297.8 954.6,245.5 964.6,245.5 964.6,236.8 934.8,236.8 	
		"/>
	<path class="st0" d="M480.9,123.1c1.2-5.5,2.6-11,4.1-16.5c-2.3,5.2-4,10.7-5.2,16.3c-1.2,5.6-2,11.3-2.1,17
		C478.7,134.2,479.7,128.6,480.9,123.1z"/>
	<path class="st0" d="M480.1,182.5c-1.3-6.5-2.1-13.1-3-19.6c-0.1,6.7,0.6,13.3,1.8,19.9c1.3,6.5,3,13,5.6,19.1
		C482.9,195.4,481.2,189,480.1,182.5z"/>
	<path class="st0" d="M726.2,263.3c-9.1,8.1-19.2,15.2-30.1,20.9c-10.8,5.6-22.3,10.1-34.1,13c-11.8,2.9-24,4.4-36.2,4.4
		c-12.2,0-24.4-1.4-36.2-4.4c-11.8-2.9-23.3-7.4-34.1-13c-10.8-5.7-20.9-12.7-30.1-20.9c-9.2-8.1-17.3-17.4-24.4-27.4
		c6.4,10.5,14.3,20.1,23.3,28.7c9,8.5,19.1,15.9,29.9,21.9c21.7,12.1,46.7,18.4,71.6,18.5c24.9-0.1,49.9-6.4,71.6-18.5
		c10.8-6,20.9-13.4,29.9-21.9c8.9-8.6,16.8-18.2,23.3-28.7C743.5,245.9,735.4,255.2,726.2,263.3z"/>
	<path class="st0" d="M769.7,195.3c1.6-6.1,2.9-12.2,3.4-18.5c-1.4,6.1-2.7,12.2-4.5,18.2c-1.6,6-3.7,11.9-5.7,17.8
		C765.8,207.2,768,201.3,769.7,195.3z"/>
	<path class="st0" d="M564.2,21.4l2.7-1.2l2.7-1.1l5.5-2.1c3.7-1.3,7.5-2.4,11.2-3.5c7.6-1.9,15.3-3.6,23.1-4.3l5.8-0.6l5.9-0.2
		c2,0,3.9-0.2,5.9-0.1l5.9,0.3l5.9,0.3c2,0,3.9,0.5,5.8,0.7l5.8,0.9c1.9,0.3,3.9,0.5,5.8,1.1c30.8,6.1,59,22.9,80.1,45.9
		c10.7,11.5,19.1,24.9,25.5,39.2c6.5,14.3,10.5,29.6,12.5,45.3c-1.1-15.8-4.9-31.3-10.9-46c-6.2-14.6-14.5-28.4-25.1-40.3
		c-10.5-12-23.1-22.2-36.8-30.3c-6.8-4.2-14.2-7.4-21.5-10.5L668.5,11l-11.7-2.9c-1.9-0.5-3.9-0.8-5.9-1.1l-6-0.8
		c-2-0.2-4-0.7-6-0.7l-6-0.3L627,5c-2-0.1-4,0.1-6,0.1l-6,0.2L609,6c-15.9,1.8-31.5,6-45.9,12.9c-14.4,6.9-27.8,15.8-39.3,26.8
		c-11.4,11-21.2,23.8-28.5,37.7C511.3,56.3,535.5,34.1,564.2,21.4z"/>
</g>
<g>
	<g>
		<path class="st0" d="M963.8,223.2H142.3L77.5,87.4c-0.2-0.4-0.6-0.7-1-0.7c-0.4,0-0.8,0.2-1.1,0.6L5.1,226.6
			c-0.3,0.6-0.1,1.3,0.5,1.6c0.2,0.1,0.3,0.1,0.5,0.1c0.4,0,0.8-0.2,1-0.6L34,174.6h66.1c0.6,0,1.2-0.5,1.2-1.1
			c0-0.6-0.5-1.1-1.2-1.1H35.2l41.3-81.8l64.1,134.4c0.2,0.4,0.6,0.7,1,0.7h822.3c0.6,0,1.2-0.5,1.2-1.1
			C965,223.7,964.5,223.2,963.8,223.2z"/>
		<path class="st0" d="M6.2,229.3c-0.3,0-0.6-0.1-0.9-0.2c-1.1-0.6-1.5-1.9-1-2.9L74.6,86.9c0.4-0.8,1.2-1.2,2-1.2
			c0.8,0,1.5,0.5,1.9,1.2l64.5,135.3h820.9c1.2,0,2.2,1,2.2,2.2c0,1.2-1,2.1-2.2,2.1H141.6c-0.8,0-1.6-0.5-1.9-1.2L76.4,92.8
			l-39.6,78.5h63.3c1.2,0,2.2,1,2.2,2.1s-1,2.2-2.2,2.2H34.6L8.1,228.1C7.7,228.8,7,229.3,6.2,229.3z M76.5,87.7
			c-0.1,0-0.1,0-0.1,0.1L6,227.1c0,0.1,0,0.2,0.1,0.2c0.1,0,0.2,0,0.2-0.1l27.1-53.6h66.7c0.1,0,0.2-0.1,0.2-0.2
			c0-0.1-0.1-0.1-0.2-0.1H33.5l43-85l64.9,136.2c0,0.1,0.1,0.1,0.1,0.1h822.3c0.1,0,0.2-0.1,0.2-0.1c0-0.1-0.1-0.2-0.2-0.2H141.7
			l-65-136.4C76.6,87.8,76.5,87.7,76.5,87.7z"/>
	</g>
	<g>
		<path class="st0" d="M164.7,215.3c0.2,0.4,0.6,0.7,1,0.7l0,0c0.4,0,0.9-0.3,1-0.6l29-59.5l28.4,59.5c0.2,0.4,0.6,0.7,1,0.7l0,0
			c0.4,0,0.9-0.3,1-0.6l58-119.2h137.4c0.6,0,1.2-0.5,1.2-1.2c0-0.6-0.5-1.2-1.2-1.2H283.5c-0.4,0-0.9,0.3-1,0.7l-57.2,117.7
			l-28.4-59.5c-0.2-0.4-0.6-0.7-1-0.7c-0.5,0-0.9,0.3-1,0.6l-29,59.5L106.3,87.4c-0.3-0.6-1-0.8-1.5-0.6s-0.8,1-0.6,1.5L164.7,215.3
			z"/>
		<path class="st0" d="M225.2,217c-0.8,0-1.6-0.5-1.9-1.2l-27.5-57.6l-28.1,57.7c-0.3,0.7-1.1,1.2-1.9,1.2c-0.8,0-1.6-0.5-1.9-1.2
			l-60.5-127c-0.2-0.5-0.3-1.1-0.1-1.7c0.2-0.5,0.6-1,1.1-1.2c1.1-0.5,2.4,0,2.9,1l58.6,122.9l28.1-57.7c0.4-0.8,1.1-1.3,2-1.2
			c0,0,0,0,0,0c0.7,0,1.5,0.5,1.9,1.2l27.5,57.6l56.3-115.8c0.3-0.7,1.1-1.2,1.9-1.2h138.1c1.2,0,2.2,1,2.2,2.1s-1,2.1-2.2,2.1
			H284.8l-57.7,118.6C226.8,216.5,226,217,225.2,217z M195.8,153.5l29.3,61.4c0.1,0.1,0.2,0.1,0.3,0l58.3-119.7h138
			c0.1,0,0.2-0.1,0.2-0.1c0-0.1-0.1-0.1-0.2-0.1H283.5c-0.1,0-0.1,0-0.1,0.1l-58.2,119.5l-29.3-61.4c0-0.1-0.1-0.1-0.1-0.1l-0.1,0
			c0,0,0,0,0,0.1l-29.9,61.4L105.4,87.8c0-0.1-0.1-0.1-0.2-0.1c0,0-0.1,0-0.1,0.1c0,0,0,0.1,0,0.1l60.5,127c0.1,0.1,0.2,0.1,0.3,0
			L195.8,153.5z"/>
	</g>
	<g>
		<path class="st0" d="M334,107.4c-0.6,0-1.2,0.5-1.2,1.2v104.9c0,0.6,0.5,1.1,1.2,1.1h87.6c0.6,0,1.2-0.5,1.2-1.1
			c0-0.6-0.5-1.1-1.2-1.1h-86.5V108.5C335.1,107.9,334.6,107.4,334,107.4z"/>
		<path class="st0" d="M421.6,215.6H334c-1.2,0-2.2-1-2.2-2.1V108.5c0-1.2,1-2.1,2.2-2.1s2.2,1,2.2,2.1v102.7h85.5
			c1.2,0,2.2,1,2.2,2.2S422.8,215.6,421.6,215.6z M334,108.4c-0.1,0-0.2,0.1-0.2,0.1v104.9c0,0.1,0.1,0.1,0.2,0.1h87.6
			c0.1,0,0.2-0.1,0.2-0.1c0-0.1-0.1-0.2-0.2-0.2h-87.5V108.5C334.1,108.5,334.1,108.4,334,108.4z"/>
	</g>
	<g>
		<path class="st0" d="M421.6,150.2h-67c-0.6,0-1.2,0.5-1.2,1.1c0,0.6,0.5,1.1,1.2,1.1h67c0.6,0,1.2-0.5,1.2-1.1
			C422.7,150.7,422.2,150.2,421.6,150.2z"/>
		<path class="st0" d="M421.6,153.5h-67c-1.2,0-2.2-1-2.2-2.1s1-2.1,2.2-2.1h67c1.2,0,2.1,0.9,2.2,2.1
			C423.7,152.6,422.8,153.5,421.6,153.5z M354.6,151.2c-0.1,0-0.2,0.1-0.2,0.1c0,0.1,0.1,0.1,0.2,0.1h67c0.1,0,0.2-0.1,0.2-0.1
			c0-0.1-0.1-0.1-0.2-0.1H354.6z"/>
	</g>
	<g>
		<path class="st0" d="M875.4,107.4c-0.6,0-1.2,0.5-1.2,1.2v104.9c0,0.6,0.5,1.1,1.2,1.1H963c0.6,0,1.2-0.5,1.2-1.1
			c0-0.6-0.5-1.1-1.2-1.1h-86.5V108.5C876.5,107.9,876,107.4,875.4,107.4z"/>
		<path class="st0" d="M963,215.6h-87.6c-1.2,0-2.2-1-2.2-2.1V108.5c0-1.2,1-2.1,2.2-2.1c1.2,0,2.1,0.9,2.2,2.1v102.7H963
			c1.2,0,2.2,1,2.2,2.2S964.2,215.6,963,215.6z M875.4,108.4c-0.1,0-0.2,0.1-0.2,0.1v104.9c0,0.1,0.1,0.1,0.2,0.1H963
			c0.1,0,0.2-0.1,0.2-0.1c0-0.1-0.1-0.2-0.2-0.2h-87.5V108.5C875.5,108.5,875.5,108.4,875.4,108.4z"/>
	</g>
	<g>
		<path class="st0" d="M963,150.2h-67c-0.6,0-1.2,0.5-1.2,1.1c0,0.6,0.5,1.1,1.2,1.1h67c0.6,0,1.2-0.5,1.2-1.1
			C964.1,150.7,963.6,150.2,963,150.2z"/>
		<path class="st0" d="M963,153.5h-67c-1.2,0-2.2-1-2.2-2.1s1-2.1,2.2-2.1h67c1.2,0,2.2,1,2.2,2.1S964.2,153.5,963,153.5z
			 M896,151.2c-0.1,0-0.2,0.1-0.2,0.1c0,0.1,0.1,0.1,0.2,0.1h67c0.1,0,0.2-0.1,0.2-0.1c0-0.1-0.1-0.1-0.2-0.1H896z"/>
	</g>
	<g>
		<path class="st0" d="M441.6,213.4c0,0.6,0.5,1.1,1.2,1.1h88.9c0.6,0,1.2-0.5,1.2-1.1v-62.1c0-0.6-0.5-1.1-1.2-1.1h-87.7v-54h87.7
			c0.6,0,1.2-0.5,1.2-1.2c0-0.6-0.5-1.2-1.2-1.2h-88.9c-0.6,0-1.2,0.5-1.2,1.2v56.3c0,0.6,0.5,1.1,1.2,1.1h87.7v59.8h-87.7
			C442.1,212.3,441.6,212.8,441.6,213.4z"/>
		<path class="st0" d="M531.6,215.6h-88.9c-1.2,0-2.2-1-2.2-2.1c0-1.2,1-2.1,2.1-2.2h86.7v-57.8h-86.7c-1.2,0-2.2-1-2.2-2.1V95
			c0-1.2,1-2.1,2.2-2.1h88.9c1.2,0,2.2,1,2.2,2.1s-1,2.1-2.2,2.1h-86.7v52h86.7c1.2,0,2.2,1,2.2,2.1v62.1
			C533.8,214.6,532.8,215.6,531.6,215.6z M442.7,213.3c-0.1,0-0.2,0.1-0.2,0.2c0,0.1,0.1,0.1,0.2,0.1h88.9c0.1,0,0.2-0.1,0.2-0.1
			v-62.1c0-0.1-0.1-0.1-0.2-0.1h-88.7v-56h88.7c0.1,0,0.2-0.1,0.2-0.1c0-0.1-0.1-0.1-0.2-0.1h-88.9c-0.1,0-0.2,0.1-0.2,0.1v56.3
			c0,0.1,0.1,0.1,0.2,0.1h88.7v61.8H442.7z"/>
	</g>
	<g>
		<path class="st0" d="M719.6,94c-0.5,0.2-0.8,0.6-0.8,1.1v118.4c0,0.6,0.5,1.1,1.2,1.1c0.6,0,1.2-0.5,1.2-1.1V98.2l55.5,66.6
			c0.2,0.3,0.5,0.4,0.9,0.4c0.3-0.1,0.7-0.1,0.9-0.4l58.8-68.7h126.7c0.6,0,1.2-0.5,1.2-1.2c0-0.6-0.5-1.2-1.2-1.2H836.7
			c-0.3,0-0.7,0.2-0.9,0.4l-58.2,68l-56.7-68C720.6,93.9,720.1,93.8,719.6,94z"/>
		<path class="st0" d="M720,215.6c-1.2,0-2.2-1-2.2-2.1V95c0-0.9,0.6-1.7,1.4-2c0.9-0.3,1.8,0,2.4,0.7l55.9,67.1L835,93.6
			c0.4-0.5,1-0.8,1.6-0.8h127.2c1.2,0,2.2,1,2.2,2.1s-1,2.1-2.2,2.1H837.7l-58.5,68.3c-0.4,0.5-1,0.6-1.4,0.7l-0.3,0
			c-0.6,0-1.2-0.3-1.6-0.8L722.2,101v112.4C722.2,214.6,721.2,215.6,720,215.6z M720,94.9C720,94.9,720,94.9,720,94.9L720,94.9
			c-0.1,0-0.2,0.1-0.2,0.2v118.4c0,0.2,0.3,0.2,0.3,0V95.5l57.2,68.7c0,0,0,0,0.1,0c0.1,0,0.2,0,0.2-0.1l59-69h127.1
			c0.1,0,0.2-0.1,0.2-0.1c0-0.1-0.1-0.1-0.2-0.1H836.7c-0.1,0-0.1,0-0.1,0.1l-59,68.9l-57.4-68.9C720.1,94.9,720.1,94.9,720,94.9z"
			/>
	</g>
	<g>
		<path class="st0" d="M834.2,118.7v94.7c0,0.6,0.5,1.1,1.2,1.1c0.6,0,1.2-0.5,1.2-1.1v-94.7c0-0.6-0.5-1.2-1.2-1.2
			S834.2,118,834.2,118.7z"/>
		<path class="st0" d="M835.3,215.6c-1.2,0-2.2-1-2.2-2.1v-94.8c0-1.2,1-2.2,2.2-2.2s2.2,1,2.2,2.2v94.8
			C837.5,214.6,836.5,215.6,835.3,215.6z M835.3,118.5c-0.1,0-0.2,0.1-0.2,0.2v94.8c0,0.2,0.3,0.2,0.3,0v-94.8
			C835.5,118.6,835.4,118.5,835.3,118.5z"/>
	</g>
	<path class="st0" d="M625.8,214.9c33.2,0,60.1-26.9,60.1-59.9c0-33-27-59.9-60.1-59.9c-33.2,0-60.1,26.9-60.1,59.9
		c0,6.5,1.1,12.8,3,18.6l87.3-44.1l-18.7,75.9l-37.6-11.9l26.1-31.6l-34.1,29l-17.7-5.6c6.1,10.3,15.3,18.7,26.2,23.9l-0.4-10.6
		l12.8,4.3l-5.9,8.9C612.8,213.8,619.2,214.9,625.8,214.9z"/>
	<path class="st0" d="M849.5,235.9c-9.3,0-14.2,5.6-14.2,15v32.8c0,9.4,4.9,15,14.2,15s14.2-5.6,14.2-15v-8.6h-9.1v9.3
		c0,4-1.9,5.6-4.8,5.6s-4.8-1.6-4.8-5.6v-34.1c0-4,1.9-5.7,4.8-5.7s4.8,1.7,4.8,5.7v7.1h9.1v-6.5
		C863.7,241.5,858.8,235.9,849.5,235.9z"/>
	<polygon class="st0" points="889.5,261.6 879.1,261.6 879.1,236.8 869.5,236.8 869.5,297.8 879.1,297.8 879.1,270.4 889.5,270.4 
		889.5,297.8 899.1,297.8 899.1,236.8 889.5,236.8 	"/>
	<path class="st0" d="M913.7,236.8l-10,61.1h8.9l1.8-12h11v-0.2l1.8,12.1h9.6l-10-61.1H913.7z M915.6,277.6l4.2-30.2h0.2l4.3,30.2
		H915.6z"/>
	<polygon class="st0" points="934.8,245.5 944.9,245.5 944.9,297.8 954.6,297.8 954.6,245.5 964.6,245.5 964.6,236.8 934.8,236.8 	
		"/>
	<g>
		<path class="st0" d="M480.9,123.1c1.2-5.5,2.6-11,4.1-16.5c-2.3,5.2-4,10.7-5.2,16.3c-1.2,5.6-2,11.3-2.1,17
			C478.7,134.2,479.7,128.7,480.9,123.1z"/>
		<path class="st0" d="M478.6,140l-2-0.2c0.1-5.4,0.8-11,2.2-17.2c1.4-6.2,3.1-11.6,5.3-16.5l1.9,0.7l-0.3,1.2
			c-1.3,5-2.6,10.2-3.7,15.3l0,0c-1.1,5.1-2.1,10.3-3,15.4L478.6,140z"/>
	</g>
	<g>
		<path class="st0" d="M480.1,182.5c-1.3-6.5-2.1-13.1-3-19.6c-0.1,6.7,0.6,13.3,1.8,19.9c1.3,6.5,3,13,5.6,19.1
			C482.9,195.4,481.2,189,480.1,182.5z"/>
		<path class="st0" d="M483.6,202.3c-2.3-5.5-4.1-11.8-5.6-19.3c-1.4-7.7-1.9-14-1.8-20.1l2-0.1l0,0.3c0.8,6.4,1.6,12.9,2.9,19.3
			l0,0c1.2,6.6,2.8,13,4.4,19.3L483.6,202.3z"/>
	</g>
	<g>
		<path class="st0" d="M726.2,263.3c-9.1,8.1-19.2,15.2-30.1,20.9c-10.8,5.6-22.3,10.1-34.1,13c-11.8,2.9-24,4.4-36.2,4.4
			c-12.2,0-24.4-1.4-36.2-4.4c-11.8-2.9-23.3-7.4-34.1-13c-10.8-5.7-20.9-12.7-30.1-20.9c-9.2-8.1-17.3-17.4-24.4-27.4
			c6.4,10.5,14.3,20.1,23.3,28.7c9,8.5,19.1,15.9,29.9,21.9c21.7,12.1,46.7,18.4,71.6,18.5c24.9-0.1,49.9-6.4,71.6-18.5
			c10.8-6,20.9-13.4,29.9-21.9c8.9-8.6,16.8-18.2,23.3-28.7C743.6,246,735.4,255.2,726.2,263.3z"/>
		<path class="st0" d="M625.8,306c-25.6-0.1-50.5-6.6-72.1-18.6c-10.9-6.1-21.1-13.5-30.1-22.1c-9.3-9-17.2-18.7-23.4-28.9l1.7-1.1
			c7.3,10.4,15.4,19.5,24.3,27.3c9.1,8.1,19.2,15.1,29.9,20.7c11.2,5.8,22.6,10.2,33.9,12.9c11.6,2.9,23.8,4.3,36,4.3
			c0.1,0,0.2,0,0.4,0c12.1,0,24-1.5,35.6-4.3c11.3-2.8,22.7-7.1,33.9-12.9c10.7-5.6,20.7-12.5,29.9-20.7l0,0
			c8.9-7.8,17-16.9,24.2-27.3l1.7,1.1c-6.3,10.2-14.1,19.9-23.4,28.9c-9.1,8.6-19.2,16-30.1,22.1C676.3,299.4,651.4,305.9,625.8,306
			z M533.5,271.3c6.6,5.4,13.7,10.2,21.2,14.3c21.3,11.9,45.9,18.2,71.1,18.4c25.2-0.1,49.8-6.5,71.1-18.4
			c7.3-4.1,14.2-8.7,20.7-13.9c-6.6,5-13.7,9.5-21,13.3c-11.4,5.9-22.9,10.3-34.3,13.1c-11.7,2.9-23.9,4.4-36.1,4.4
			c-0.2,0-0.4,0-0.6,0c-12.3,0-24.5-1.5-36.2-4.4c-11.4-2.8-23-7.2-34.3-13.1C547.5,281.1,540.3,276.5,533.5,271.3z"/>
	</g>
	<g>
		<path class="st0" d="M769.7,195.3c1.6-6.1,2.9-12.2,3.4-18.5c-1.4,6.1-2.7,12.2-4.5,18.2c-1.6,6-3.7,11.9-5.7,17.8
			C765.9,207.2,768,201.3,769.7,195.3z"/>
		<path class="st0" d="M763.8,213.3l-1.8-0.8l0.5-1.4c1.8-5.3,3.7-10.9,5.2-16.4c1.6-5.3,2.8-10.8,4-16.1l0.5-2l2,0.3
			c-0.4,5.7-1.5,11.6-3.4,18.7l0,0C768.6,202.7,766.4,208.3,763.8,213.3z"/>
	</g>
	<g>
		<path class="st0" d="M564.2,21.4l2.7-1.2l2.7-1.1l5.5-2.1c3.7-1.3,7.5-2.4,11.2-3.5c7.6-1.9,15.3-3.6,23.1-4.3l5.8-0.6l5.9-0.2
			c2,0,3.9-0.2,5.9-0.1l5.9,0.3l5.9,0.3c2,0,3.9,0.5,5.8,0.7l5.8,0.9c1.9,0.3,3.9,0.5,5.8,1.1c30.8,6.1,59,22.9,80.1,45.9
			c10.7,11.5,19.1,24.9,25.5,39.2c6.5,14.3,10.5,29.6,12.5,45.3c-1.1-15.7-4.9-31.3-10.9-46c-6.2-14.6-14.5-28.4-25.1-40.3
			c-10.5-12-23.1-22.2-36.8-30.3c-6.8-4.2-14.2-7.4-21.5-10.5L668.5,11l-11.7-2.9c-1.9-0.5-3.9-0.8-5.9-1.1l-6-0.8
			c-2-0.2-4-0.7-6-0.7l-6-0.3L627,5c-2-0.1-4,0.1-6,0.1l-6,0.2L609,6c-15.9,1.8-31.5,6-45.9,12.9c-14.4,6.9-27.8,15.8-39.3,26.8
			c-11.4,11-21.2,23.8-28.5,37.7C511.3,56.3,535.5,34.1,564.2,21.4z"/>
		<path class="st0" d="M773.1,142.1c-1.9-16-6.1-31.2-12.4-45c-6.7-14.9-15.2-28-25.3-39c-21.5-23.5-49.8-39.7-79.5-45.6
			c-1.7-0.5-3.3-0.7-5-1l-6.5-0.9c-0.7-0.1-1.4-0.2-2.1-0.3c-1.3-0.2-2.4-0.4-3.6-0.4l-11.8-0.6c-1.2-0.1-2.4,0-3.7,0
			c-0.7,0-1.4,0.1-2.1,0.1l-5.8,0.2l-5.8,0.6c-8.5,0.8-16.7,2.7-22.9,4.3c-3.3,1-7.2,2.2-11.1,3.5l-8.2,3.1l-2.6,1.2
			c-28.1,12.5-52.5,34.4-68.5,61.7l-1.7-1c7.3-13.8,16.9-26.6,28.7-38c11.2-10.8,24.6-19.8,39.6-27c14-6.8,29.6-11.1,46.3-13l6-0.6
			l6.1-0.2c0.7,0,1.4,0,2.1-0.1c1.3-0.1,2.6-0.1,4,0l12,0.5c1.3,0,2.7,0.2,4,0.4c0.7,0.1,1.4,0.2,2.1,0.3l6.8,1
			c1.7,0.2,3.5,0.5,5.2,1l11.6,2.9l11.4,4c7.2,3,14.8,6.3,21.7,10.6c14.2,8.4,26.7,18.6,37.1,30.4c10.3,11.5,18.8,25.2,25.2,40.6
			c6.2,15,9.8,30.6,11,46.3L773.1,142.1z M625.6,7.3c0.5,0,1,0,1.5,0l11.7,0.6c1.3,0,2.6,0.2,3.9,0.4c0.7,0.1,1.3,0.2,2,0.3l6.5,0.9
			c1.7,0.2,3.5,0.5,5.2,1c30.1,6,58.8,22.4,80.5,46.2c7.3,7.9,13.8,16.9,19.4,26.9c-5.4-10.1-11.7-19.3-18.9-27.4
			c-10.2-11.7-22.5-21.8-36.6-30.1c-6.9-4.2-14.3-7.5-21.4-10.4L668.1,12l-11.6-2.8c-1.6-0.5-3.3-0.7-5-0.9l-6.8-1
			c-0.7-0.1-1.4-0.2-2.1-0.3c-1.3-0.2-2.5-0.4-3.7-0.4l-12-0.5c-1.2-0.1-2.5,0-3.8,0c-0.7,0-1.5,0.1-2.2,0.1l-6,0.2L609.1,7
			c-16.4,1.9-31.8,6.2-45.6,12.8c-11.3,5.4-21.7,11.9-30.8,19.4c9.6-7.5,20.1-13.9,31.2-18.8l2.7-1.2l8.3-3.2
			c4-1.4,7.9-2.6,11.3-3.6c6.3-1.6,14.6-3.5,23.3-4.3l5.8-0.6l5.9-0.2c0.7,0,1.4,0,2.1-0.1C623.9,7.3,624.7,7.3,625.6,7.3z"/>
	</g>
</g>
</svg>
